<svg xmlns="http://www.w3.org/2000/svg" width="70" height="71" viewBox="0 0 70 71">
  <metadata><?xpacket begin="﻿" id="W5M0MpCehiHzreSzNTczkc9d"?>
<x:xmpmeta xmlns:x="adobe:ns:meta/" x:xmptk="Adobe XMP Core 5.6-c138 79.159824, 2016/09/14-01:09:01        ">
   <rdf:RDF xmlns:rdf="http://www.w3.org/1999/02/22-rdf-syntax-ns#">
      <rdf:Description rdf:about=""/>
   </rdf:RDF>
</x:xmpmeta>
                                                                                                    
                                                                                                    
                                                                                                    
                                                                                                    
                                                                                                    
                                                                                                    
                                                                                                    
                                                                                                    
                                                                                                    
                                                                                                    
                                                                                                    
                                                                                                    
                                                                                                    
                                                                                                    
                                                                                                    
                                                                                                    
                                                                                                    
                                                                                                    
                                                                                                    
                                                                                                    
                           
<?xpacket end="w"?></metadata>
<defs>
    <style>
      .cls-1 {
        fill-rule: evenodd;
      }
    </style>
  </defs>
  <path id="Rectangle_1_copy_7" data-name="Rectangle 1 copy 7" class="cls-1" d="M43,65H15V62H43v3ZM15,15H65v3H15V15Zm47,0h3V44H62V15ZM18,65H15V15h3V65ZM74,75h5v5H74V75Zm-8,0h5v5H66V75Zm-9,0h5v5H57V75Zm-8,0h5v5H49V75Zm25-9h5v5H74V66Zm-8,0h5v5H66V66Zm-9,0h5v5H57V66Zm-8,0h5v5H49V66Zm25-9h5v5H74V57Zm-8,0h5v5H66V57Zm8-8h5v5H74V49Zm-8,0h5v5H66V49ZM43,83H85v3H43V83ZM85,47H43V44H85v3Zm-3-3h3V86H82V44ZM46,86H43V47h3V86ZM18,35v3M37,18H34M57,57h5v5H57V57Zm-8,0h5v5H49V57Zm8-8h5v5H57V49Zm-8,0h5v5H49V49Z" transform="translate(-15 -15)"/>
</svg>
