<?xml version="1.0" encoding="iso-8859-1"?>
<!-- Generator: Adobe Illustrator 18.1.1, SVG Export Plug-In . SVG Version: 6.00 Build 0)  -->
<svg version="1.1" id="Capa_1" xmlns="http://www.w3.org/2000/svg" xmlns:xlink="http://www.w3.org/1999/xlink" x="0px" y="0px"
	 viewBox="0 0 290 290" style="enable-background:new 0 0 290 290;" xml:space="preserve">
<g>
	<path id="path23062" d="M92.762,0C80.817,0,71.045,9.772,71.045,21.717v24.254H46.791c-11.944,0-21.717,9.77-21.717,21.715v200.598
		c0,11.944,9.772,21.717,21.717,21.717h150.447c11.944,0,21.717-9.772,21.717-21.717v-24.254h24.254
		c11.944,0,21.717-9.77,21.717-21.715V63.508c0-1.262-0.477-2.477-1.336-3.402L209.262,1.598C208.316,0.579,206.988,0,205.598,0
		H92.762z M92.762,10h103.656v53.508c0,2.761,2.239,5,5,5h53.508v153.807c0,6.577-5.139,11.715-11.717,11.715h-24.254V109.477
		c0-1.261-0.478-2.476-1.336-3.4l-54.328-58.508c-0.946-1.019-2.274-1.598-3.664-1.598H91.082V20.037h26.754
		c1.381,0.02,2.516-1.084,2.535-2.465c0.02-1.381-1.084-2.516-2.465-2.535c-0.024,0-0.047,0-0.071,0H88.582
		c-1.381,0-2.5,1.119-2.5,2.5v28.434h-5.037V21.717C81.045,15.139,86.184,10,92.762,10z M206.418,13.232l42.043,45.275h-42.043
		V13.232z M46.791,55.971h103.656v53.506c0,2.761,2.239,5,5,5h53.508v153.807c0,6.577-5.139,11.717-11.717,11.717H46.791
		c-6.577,0-11.717-5.139-11.717-11.717V67.686C35.074,61.108,40.214,55.971,46.791,55.971z M160.447,59.201l42.041,45.275h-42.041
		V59.201z M42.611,61.008c-1.381,0-2.5,1.119-2.5,2.5v62.686c-0.02,1.381,1.084,2.516,2.465,2.535s2.516-1.084,2.535-2.465
		c0-0.024,0-0.047,0-0.071V66.008h26.754c1.381,0.02,2.516-1.084,2.535-2.465c0.02-1.381-1.084-2.516-2.465-2.535
		c-0.024,0-0.047,0-0.071,0H42.611z"/>
</g>
<g>
</g>
<g>
</g>
<g>
</g>
<g>
</g>
<g>
</g>
<g>
</g>
<g>
</g>
<g>
</g>
<g>
</g>
<g>
</g>
<g>
</g>
<g>
</g>
<g>
</g>
<g>
</g>
<g>
</g>
</svg>
