<?xml version="1.0" encoding="iso-8859-1"?>
<!-- Generator: Adobe Illustrator 17.1.0, SVG Export Plug-In . SVG Version: 6.00 Build 0)  -->
<!DOCTYPE svg PUBLIC "-//W3C//DTD SVG 1.1//EN" "http://www.w3.org/Graphics/SVG/1.1/DTD/svg11.dtd">
<svg version="1.1" id="Capa_1" xmlns="http://www.w3.org/2000/svg" xmlns:xlink="http://www.w3.org/1999/xlink" x="0px" y="0px"
	 viewBox="0 0 386.419 386.419" style="enable-background:new 0 0 386.419 386.419;" xml:space="preserve">
<g>
	<path d="M63.445,242.384c-4.235,0-8.423,0.796-12.447,2.367c-16.295,6.36-24.817,23.666-18.997,38.58
		c4.239,10.86,15.096,17.878,27.661,17.878c4.235,0,8.423-0.796,12.447-2.367c7.741-3.021,13.997-8.589,17.617-15.679
		c3.771-7.387,4.262-15.52,1.381-22.9C86.867,249.402,76.009,242.384,63.445,242.384z M76.365,276.342
		c-1.947,3.814-5.396,6.842-9.711,8.526c-2.279,0.89-4.632,1.341-6.993,1.341c-6.339,0-11.711-3.271-13.687-8.332
		c-2.813-7.208,1.887-15.8,10.477-19.152c2.279-0.89,4.632-1.34,6.994-1.34c6.339,0,11.711,3.271,13.687,8.332
		C78.434,269.051,78.161,272.824,76.365,276.342z"/>
	<path d="M71.974,87.922c-3.97-1.549-8.102-2.335-12.28-2.335c-12.402,0-23.12,6.929-27.306,17.653
		c-2.845,7.289-2.361,15.32,1.362,22.612c3.572,6.996,9.745,12.491,17.381,15.471c3.97,1.549,8.102,2.335,12.281,2.335
		c0.001,0,0,0,0,0c12.401,0,23.12-6.93,27.305-17.653C96.464,111.283,88.056,94.199,71.974,87.922z M76.744,120.552
		c-1.922,4.924-7.155,8.106-13.331,8.106c-2.305,0-4.602-0.44-6.828-1.309c-4.211-1.643-7.576-4.598-9.476-8.318
		c-1.748-3.424-2.014-7.096-0.748-10.338c1.922-4.925,7.155-8.107,13.332-8.107c2.305,0,4.601,0.44,6.826,1.309
		C74.897,105.165,79.483,113.534,76.744,120.552z"/>
	<path d="M381.691,138.914c0.071-0.028,0.14-0.064,0.21-0.094c0.217-0.094,0.427-0.195,0.63-0.306
		c0.035-0.02,0.072-0.032,0.107-0.052c0.054-0.031,0.103-0.067,0.156-0.1c0.125-0.075,0.248-0.153,0.367-0.234
		c0.089-0.061,0.175-0.123,0.26-0.187c0.113-0.085,0.223-0.171,0.329-0.261c0.087-0.073,0.171-0.148,0.254-0.224
		c0.094-0.087,0.186-0.176,0.276-0.268c0.085-0.087,0.169-0.177,0.25-0.268c0.078-0.087,0.153-0.177,0.227-0.268
		c0.081-0.101,0.16-0.203,0.235-0.307c0.065-0.09,0.128-0.181,0.189-0.274c0.072-0.109,0.142-0.22,0.207-0.333
		c0.056-0.096,0.109-0.192,0.162-0.29c0.06-0.113,0.116-0.227,0.17-0.342c0.049-0.105,0.094-0.211,0.138-0.318
		c0.046-0.112,0.09-0.225,0.13-0.339c0.041-0.116,0.078-0.232,0.114-0.35c0.033-0.109,0.063-0.218,0.091-0.329
		c0.031-0.126,0.06-0.252,0.085-0.379c0.021-0.107,0.04-0.213,0.057-0.321c0.02-0.131,0.036-0.262,0.049-0.394
		c0.011-0.109,0.02-0.218,0.025-0.327c0.007-0.129,0.011-0.259,0.011-0.389c0-0.117-0.002-0.233-0.007-0.351
		c-0.005-0.122-0.014-0.243-0.025-0.365c-0.012-0.128-0.028-0.255-0.046-0.383c-0.016-0.11-0.035-0.22-0.056-0.33
		c-0.027-0.139-0.058-0.277-0.093-0.416c-0.025-0.101-0.052-0.201-0.082-0.301c-0.043-0.142-0.089-0.282-0.14-0.422
		c-0.021-0.057-0.035-0.114-0.057-0.171c-0.018-0.046-0.041-0.089-0.06-0.135c-0.051-0.124-0.107-0.246-0.165-0.368
		c-0.057-0.12-0.116-0.238-0.179-0.354c-0.024-0.044-0.043-0.09-0.068-0.134c-0.047-0.083-0.101-0.16-0.149-0.242
		c-0.035-0.056-0.067-0.113-0.103-0.167c-8.702-14.914-23.978-22.685-44.132-22.385c-14.464,0.196-26.472,4.503-26.976,4.687
		c-0.039,0.014-0.074,0.033-0.113,0.048c-0.037,0.014-0.075,0.023-0.112,0.038l-139.302,55.775l-58.158-21.987
		c1.226-2.154,2.305-4.393,3.212-6.718c5.522-14.149,4.55-29.801-2.737-44.073c-7.135-13.976-19.521-24.973-34.874-30.965
		c-15.354-5.992-31.914-6.293-46.63-0.845C20.338,66.961,9.021,77.816,3.499,91.964c-11.264,28.86,5.574,62.49,37.536,75.007
		c0.009,0.004,0.018,0.009,0.027,0.013l65.672,26.157L41.049,219.44c-0.01,0.004-0.02,0.01-0.03,0.014
		C9.067,231.976-7.763,265.6,3.499,294.455c5.522,14.148,16.84,25.003,31.868,30.566c6.991,2.588,14.395,3.879,21.891,3.878
		c8.284,0,16.679-1.578,24.739-4.723c15.354-5.992,27.739-16.989,34.875-30.965c7.287-14.273,8.259-29.925,2.737-44.073
		c-0.919-2.356-2.016-4.624-3.262-6.804l57.606-22.451l141.657,56.332c0.004,0.001,0.008,0.002,0.012,0.004
		c0.003,0.001,0.005,0.002,0.008,0.004c6.442,2.54,15.825,4.78,25.846,4.78c15.326,0,32.136-5.248,42.147-22.682
		c0.011-0.019,0.023-0.038,0.034-0.057c0.015-0.026,0.031-0.051,0.046-0.077c0.16-0.281,0.293-0.569,0.413-0.86
		c0.012-0.028,0.029-0.054,0.041-0.083c0.026-0.067,0.044-0.134,0.068-0.201c0.049-0.134,0.097-0.268,0.137-0.403
		c0.032-0.106,0.06-0.212,0.087-0.319c0.034-0.133,0.066-0.266,0.092-0.4c0.023-0.115,0.041-0.23,0.058-0.345
		c0.019-0.124,0.035-0.247,0.047-0.371c0.012-0.126,0.02-0.252,0.026-0.377c0.005-0.114,0.009-0.227,0.009-0.341
		c0-0.134-0.004-0.266-0.011-0.398c-0.005-0.107-0.012-0.214-0.022-0.32c-0.013-0.134-0.03-0.267-0.05-0.4
		c-0.016-0.105-0.033-0.211-0.053-0.316c-0.025-0.128-0.054-0.256-0.086-0.383c-0.027-0.109-0.056-0.217-0.087-0.324
		c-0.035-0.119-0.074-0.236-0.115-0.354c-0.04-0.113-0.081-0.225-0.126-0.335c-0.043-0.108-0.09-0.214-0.139-0.32
		c-0.053-0.115-0.108-0.229-0.167-0.341c-0.052-0.099-0.106-0.196-0.162-0.292c-0.065-0.112-0.132-0.223-0.204-0.332
		c-0.061-0.094-0.125-0.186-0.191-0.277c-0.075-0.104-0.151-0.206-0.232-0.307c-0.074-0.092-0.15-0.182-0.229-0.27
		c-0.08-0.091-0.161-0.181-0.246-0.268c-0.09-0.093-0.184-0.183-0.28-0.271c-0.081-0.076-0.164-0.151-0.249-0.224
		c-0.108-0.092-0.221-0.179-0.335-0.265c-0.083-0.063-0.166-0.125-0.253-0.185c-0.122-0.084-0.248-0.163-0.376-0.24
		c-0.057-0.034-0.11-0.074-0.168-0.107c-0.036-0.02-0.074-0.036-0.11-0.056c-0.118-0.064-0.24-0.124-0.363-0.183
		c-0.116-0.056-0.231-0.111-0.349-0.16c-0.041-0.018-0.079-0.039-0.12-0.055l-137.036-54.503l138.725-54.067
		C381.663,138.928,381.677,138.92,381.691,138.914z M46.612,153.048c-0.008-0.003-0.017-0.005-0.025-0.008
		c-0.008-0.003-0.015-0.007-0.023-0.011c-24.307-9.486-37.357-34.434-29.091-55.611c3.942-10.102,12.147-17.898,23.101-21.954
		c11.268-4.171,24.042-3.904,35.969,0.751c11.928,4.655,21.505,13.112,26.968,23.812c5.312,10.404,6.065,21.697,2.123,31.799
		c-1.547,3.964-3.762,7.601-6.584,10.808c-0.035,0.04-0.064,0.083-0.098,0.123c-0.102,0.121-0.201,0.245-0.296,0.373
		c-0.062,0.084-0.121,0.17-0.18,0.256c-0.076,0.111-0.149,0.225-0.219,0.341c-0.068,0.113-0.131,0.227-0.192,0.342
		c-0.051,0.096-0.1,0.191-0.147,0.29c-0.067,0.14-0.128,0.281-0.186,0.424c-0.021,0.052-0.046,0.1-0.066,0.152
		c-0.014,0.036-0.022,0.073-0.035,0.109c-0.053,0.147-0.1,0.295-0.143,0.445c-0.028,0.096-0.056,0.191-0.08,0.288
		c-0.033,0.132-0.06,0.265-0.085,0.397c-0.023,0.117-0.045,0.233-0.062,0.351c-0.016,0.11-0.026,0.22-0.037,0.331
		c-0.013,0.137-0.027,0.274-0.033,0.411c-0.004,0.096-0.002,0.191-0.003,0.287c-0.001,0.147-0.001,0.294,0.007,0.439
		c0.005,0.096,0.016,0.19,0.025,0.285c0.013,0.143,0.026,0.285,0.048,0.426c0.016,0.107,0.039,0.214,0.06,0.321
		c0.024,0.124,0.047,0.248,0.078,0.371c0.031,0.126,0.071,0.251,0.108,0.376c0.031,0.101,0.059,0.201,0.094,0.3
		c0.048,0.138,0.104,0.273,0.161,0.408c0.036,0.085,0.069,0.171,0.107,0.254c0.063,0.136,0.133,0.268,0.204,0.399
		c0.044,0.082,0.086,0.165,0.134,0.246c0.07,0.12,0.147,0.236,0.224,0.352c0.061,0.092,0.121,0.184,0.186,0.272
		c0.07,0.096,0.145,0.189,0.22,0.282c0.085,0.105,0.17,0.21,0.261,0.311c0.066,0.073,0.135,0.144,0.205,0.214
		c0.109,0.113,0.221,0.223,0.337,0.329c0.028,0.025,0.052,0.054,0.081,0.079c0.041,0.037,0.086,0.066,0.128,0.102
		c0.119,0.1,0.24,0.197,0.365,0.29c0.087,0.065,0.176,0.125,0.265,0.186c0.108,0.073,0.218,0.145,0.331,0.212
		c0.116,0.07,0.234,0.135,0.353,0.199c0.092,0.048,0.184,0.096,0.278,0.141c0.144,0.07,0.291,0.133,0.439,0.192
		c0.048,0.02,0.093,0.044,0.142,0.062l51.923,19.63l-27.004,10.813L46.612,153.048z M103.511,286.391
		c-5.463,10.7-15.041,19.157-26.969,23.812c-11.927,4.654-24.702,4.922-35.969,0.751c-10.954-4.055-19.159-11.852-23.101-21.954
		c-8.266-21.177,4.785-46.124,29.091-55.611c0.012-0.004,0.022-0.01,0.034-0.015c0.009-0.003,0.018-0.006,0.027-0.009
		L319.29,124.192c1.729-0.604,31.073-10.501,47.514,4.429L101.958,231.843c-0.044,0.017-0.085,0.04-0.128,0.058
		c-0.14,0.058-0.278,0.12-0.416,0.187c-0.098,0.047-0.194,0.095-0.289,0.146c-0.114,0.062-0.226,0.127-0.336,0.194
		c-0.114,0.069-0.226,0.141-0.335,0.215c-0.086,0.059-0.17,0.12-0.254,0.183c-0.125,0.093-0.247,0.189-0.365,0.289
		c-0.035,0.03-0.072,0.055-0.107,0.085c-0.036,0.032-0.067,0.067-0.103,0.1c-0.115,0.105-0.226,0.213-0.334,0.325
		c-0.071,0.074-0.141,0.148-0.209,0.224c-0.089,0.101-0.175,0.204-0.259,0.309c-0.076,0.096-0.151,0.191-0.222,0.29
		c-0.065,0.091-0.127,0.183-0.188,0.276c-0.076,0.116-0.149,0.232-0.219,0.351c-0.049,0.085-0.094,0.171-0.14,0.257
		c-0.068,0.129-0.134,0.258-0.194,0.39c-0.04,0.088-0.076,0.177-0.112,0.266c-0.054,0.131-0.106,0.263-0.152,0.396
		c-0.035,0.101-0.064,0.203-0.095,0.305c-0.037,0.123-0.073,0.246-0.103,0.371c-0.029,0.12-0.053,0.241-0.076,0.362
		c-0.021,0.11-0.042,0.219-0.058,0.329c-0.02,0.135-0.033,0.271-0.046,0.408c-0.009,0.101-0.018,0.201-0.024,0.302
		c-0.007,0.14-0.008,0.281-0.007,0.422c0.001,0.103,0.002,0.204,0.007,0.306c0.006,0.134,0.018,0.267,0.032,0.4
		c0.011,0.115,0.024,0.23,0.041,0.345c0.017,0.116,0.039,0.231,0.062,0.346c0.026,0.136,0.057,0.271,0.091,0.406
		c0.024,0.095,0.051,0.189,0.079,0.284c0.045,0.153,0.096,0.303,0.151,0.454c0.016,0.043,0.026,0.087,0.043,0.13
		c0.011,0.027,0.026,0.051,0.038,0.078c0.131,0.327,0.281,0.647,0.461,0.957c0.019,0.032,0.04,0.061,0.059,0.092
		c0.151,0.252,0.321,0.496,0.506,0.733c0.061,0.079,0.121,0.157,0.185,0.233c0.038,0.045,0.07,0.092,0.108,0.136
		c2.821,3.207,5.037,6.843,6.584,10.808C109.577,264.693,108.823,275.986,103.511,286.391z M365.221,257.786
		c-5.798,5.529-13.684,8.308-23.572,8.201c-10.93-0.078-20.251-3.616-20.515-3.718l-126.681-50.377l27.969-10.901L365.221,257.786z"
		/>
	<path d="M173.816,200.343c4.142,0,7.54-3.398,7.54-7.54s-3.398-7.541-7.54-7.541c-4.142,0-7.541,3.399-7.541,7.541
		S169.674,200.343,173.816,200.343z"/>
</g>
<g>
</g>
<g>
</g>
<g>
</g>
<g>
</g>
<g>
</g>
<g>
</g>
<g>
</g>
<g>
</g>
<g>
</g>
<g>
</g>
<g>
</g>
<g>
</g>
<g>
</g>
<g>
</g>
<g>
</g>
</svg>
