<svg xmlns="http://www.w3.org/2000/svg" width="70" height="71" viewBox="0 0 70 71">
  <metadata><?xpacket begin="﻿" id="W5M0MpCehiHzreSzNTczkc9d"?>
<x:xmpmeta xmlns:x="adobe:ns:meta/" x:xmptk="Adobe XMP Core 5.6-c138 79.159824, 2016/09/14-01:09:01        ">
   <rdf:RDF xmlns:rdf="http://www.w3.org/1999/02/22-rdf-syntax-ns#">
      <rdf:Description rdf:about=""/>
   </rdf:RDF>
</x:xmpmeta>
                                                                                                    
                                                                                                    
                                                                                                    
                                                                                                    
                                                                                                    
                                                                                                    
                                                                                                    
                                                                                                    
                                                                                                    
                                                                                                    
                                                                                                    
                                                                                                    
                                                                                                    
                                                                                                    
                                                                                                    
                                                                                                    
                                                                                                    
                                                                                                    
                                                                                                    
                                                                                                    
                           
<?xpacket end="w"?></metadata>
<defs>
    <style>
      .cls-1 {
        fill-rule: evenodd;
      }
    </style>
  </defs>
  <path id="Rectangle_1_copy_6" data-name="Rectangle 1 copy 6" class="cls-1" d="M35,36H85v3H35V36Zm0,47H85v3H35V83Zm0-47h3V86H35V36Zm47,0h3V86H82V36ZM21,21h5v5H21V21Zm8,0h5v5H29V21Zm9,0h5v5H38V21Zm8,0h5v5H46V21ZM21,30h5v5H21V30Zm8,0h5v5H29V30Zm9,0h5v5H38V30Zm8,0h5v5H46V30ZM21,39h5v5H21V39Zm8,0h5v5H29V39Zm-8,8h5v5H21V47Zm8,0h5v5H29V47ZM15,15H57v3H15V15Zm0,39H38v3H15V54Zm0-39h3V57H15V15Zm39,0h3V39H54V15ZM82,66V63M63,83h3" transform="translate(-15 -15)"/>
</svg>
