<svg xmlns="http://www.w3.org/2000/svg" width="90" height="90" viewBox="0 0 90 90">
  <metadata><?xpacket begin="﻿" id="W5M0MpCehiHzreSzNTczkc9d"?>
<x:xmpmeta xmlns:x="adobe:ns:meta/" x:xmptk="Adobe XMP Core 5.6-c138 79.159824, 2016/09/14-01:09:01        ">
   <rdf:RDF xmlns:rdf="http://www.w3.org/1999/02/22-rdf-syntax-ns#">
      <rdf:Description rdf:about=""/>
   </rdf:RDF>
</x:xmpmeta>
                                                                                                    
                                                                                                    
                                                                                                    
                                                                                                    
                                                                                                    
                                                                                                    
                                                                                                    
                                                                                                    
                                                                                                    
                                                                                                    
                                                                                                    
                                                                                                    
                                                                                                    
                                                                                                    
                                                                                                    
                                                                                                    
                                                                                                    
                                                                                                    
                                                                                                    
                                                                                                    
                           
<?xpacket end="w"?></metadata>
<defs>
    <style>
      .cls-1 {
        fill-rule: evenodd;
      }
    </style>
  </defs>
  <path id="Rectangle_1_copy_6" data-name="Rectangle 1 copy 6" class="cls-1" d="M25,26H75v3H25V26Zm0,47H75v3H25V73Zm0-47h3V76H25V26Zm47,0h3V76H72V26ZM11,11h5v5H11V11Zm8,0h5v5H19V11Zm9,0h5v5H28V11Zm8,0h5v5H36V11ZM11,20h5v5H11V20Zm8,0h5v5H19V20Zm9,0h5v5H28V20Zm8,0h5v5H36V20ZM11,29h5v5H11V29Zm8,0h5v5H19V29Zm-8,8h5v5H11V37Zm8,0h5v5H19V37ZM5,5H47V8H5V5ZM5,44H28v3H5V44ZM5,5H8V47H5V5ZM44,5h3V29H44V5ZM76,59h5v5H76V59Zm8,0h5v5H84V59Zm-8,9h5v5H76V68Zm8,0h5v5H84V68ZM59,77h5v5H59V77Zm8,0h5v5H67V77Zm9,0h5v5H76V77Zm8,0h5v5H84V77ZM59,85h5v5H59V85Zm8,0h5v5H67V85Zm9,0h5v5H76V85Zm8,0h5v5H84V85ZM72,53H95v3H72V53ZM53,92H95v3H53V92Zm0-19h3V95H53V73ZM92,53h3V95H92V53Z" transform="translate(-5 -5)"/>
</svg>
